<svg width="800" height="450" viewBox="0 0 800 450" fill="none" xmlns="http://www.w3.org/2000/svg">
  <rect width="800" height="450" rx="12" fill="#050510"/>
  
  <!-- Chart Grid -->
  <line x1="100" y1="350" x2="700" y2="350" stroke="#1F1F3A" stroke-width="1"/>
  <line x1="100" y1="300" x2="700" y2="300" stroke="#1F1F3A" stroke-width="1"/>
  <line x1="100" y1="250" x2="700" y2="250" stroke="#1F1F3A" stroke-width="1"/>
  <line x1="100" y1="200" x2="700" y2="200" stroke="#1F1F3A" stroke-width="1"/>
  <line x1="100" y1="150" x2="700" y2="150" stroke="#1F1F3A" stroke-width="1"/>
  <line x1="100" y1="100" x2="700" y2="100" stroke="#1F1F3A" stroke-width="1"/>
  
  <!-- Vertical grid lines -->
  <line x1="100" y1="100" x2="100" y2="350" stroke="#1F1F3A" stroke-width="1"/>
  <line x1="200" y1="100" x2="200" y2="350" stroke="#1F1F3A" stroke-width="1"/>
  <line x1="300" y1="100" x2="300" y2="350" stroke="#1F1F3A" stroke-width="1"/>
  <line x1="400" y1="100" x2="400" y2="350" stroke="#1F1F3A" stroke-width="1"/>
  <line x1="500" y1="100" x2="500" y2="350" stroke="#1F1F3A" stroke-width="1"/>
  <line x1="600" y1="100" x2="600" y2="350" stroke="#1F1F3A" stroke-width="1"/>
  <line x1="700" y1="100" x2="700" y2="350" stroke="#1F1F3A" stroke-width="1"/>
  
  <!-- Data circles representing prospects -->
  <circle cx="150" cy="280" r="15" fill="#6366F1" opacity="0.8"/>
  <circle cx="230" cy="220" r="15" fill="#6366F1" opacity="0.8"/>
  <circle cx="320" cy="300" r="15" fill="#6366F1" opacity="0.8"/>
  <circle cx="400" cy="180" r="15" fill="#6366F1" opacity="0.8"/>
  <circle cx="480" cy="250" r="15" fill="#6366F1" opacity="0.8"/>
  <circle cx="550" cy="140" r="15" fill="#A855F7" opacity="0.9"/>
  <circle cx="620" cy="220" r="15" fill="#6366F1" opacity="0.8"/>
  <circle cx="680" cy="190" r="15" fill="#6366F1" opacity="0.8"/>
  
  <!-- Highlighted target prospects -->
  <circle cx="550" cy="140" r="25" stroke="#A855F7" stroke-width="2" fill="none"/>
  <circle cx="400" cy="180" r="25" stroke="#A855F7" stroke-width="2" fill="none"/>
  
  <!-- Labels -->
  <rect x="100" y="40" width="200" height="30" rx="4" fill="#1F1F3A"/>
  <rect x="320" y="40" width="150" height="30" rx="4" fill="#1F1F3A"/>
  <rect x="550" y="40" width="150" height="30" rx="4" fill="#6366F1"/>
  
  <!-- Legend -->
  <rect x="100" y="380" width="20" height="20" rx="4" fill="#6366F1"/>
  <rect x="250" y="380" width="20" height="20" rx="4" fill="#A855F7"/>
  <rect x="450" y="380" width="20" height="20" rx="10" stroke="#A855F7" stroke-width="2" fill="none"/>
</svg> 