<svg width="800" height="500" viewBox="0 0 800 500" fill="none" xmlns="http://www.w3.org/2000/svg">
  <rect width="800" height="500" rx="12" fill="#0A0A18"/>
  <rect x="40" y="40" width="720" height="60" rx="8" fill="#1F1F3A"/>
  <rect x="60" y="60" width="200" height="20" rx="4" fill="#3B3B5C"/>
  <rect x="280" y="60" width="160" height="20" rx="4" fill="#3B3B5C"/>
  <rect x="460" y="60" width="120" height="20" rx="4" fill="#3B3B5C"/>
  <rect x="600" y="60" width="80" height="20" rx="4" fill="#3B3B5C"/>
  <rect x="700" y="60" width="40" height="20" rx="4" fill="#6366F1"/>
  
  <rect x="40" y="120" width="500" height="340" rx="8" fill="#1F1F3A"/>
  <rect x="60" y="140" width="460" height="20" rx="4" fill="#3B3B5C"/>
  <rect x="60" y="180" width="460" height="260" rx="8" fill="#15152A"/>
  
  <rect x="560" y="120" width="200" height="340" rx="8" fill="#1F1F3A"/>
  <rect x="580" y="140" width="160" height="20" rx="4" fill="#3B3B5C"/>
  
  <rect x="580" y="180" width="160" height="40" rx="8" fill="#15152A"/>
  <rect x="600" y="190" width="120" height="20" rx="4" fill="#3B3B5C"/>
  
  <rect x="580" y="240" width="160" height="40" rx="8" fill="#15152A"/>
  <rect x="600" y="250" width="120" height="20" rx="4" fill="#3B3B5C"/>
  
  <rect x="580" y="300" width="160" height="40" rx="8" fill="#15152A"/>
  <rect x="600" y="310" width="120" height="20" rx="4" fill="#3B3B5C"/>
  
  <rect x="580" y="360" width="160" height="40" rx="8" fill="#6366F1"/>
  <rect x="600" y="370" width="120" height="20" rx="4" fill="#8284F3"/>
</svg> 